# xmcd CD database file
#
# Track frame offsets:
#	150
#	13257
#	24052
#	36450
#	50070
#	84507
#	95255
#	108810
#	124340
#	137615
#	150927
#	164382
#
# Disc length: 2400 seconds
#
# Revision: 2
# Processed by: cddbd v1.4b41PL1 Copyright (c) Steve Scherf et al.
# Submitted via: Feurio! 1.57ß - http://www.feurio.com
#
DISCID=8d095e0c,a5095e0c
DTITLE=Dr. Hook - Volume Three
DYEAR=1900
DGENRE=
TTITLE0=Sharing The night Together 
TTITLE1=I Need To fall In Love Again
TTITLE2=Making Love And music
TTITLE3=Better Love Next Time
TTITLE4=Carry Me, Carrie (Live)
TTITLE5=Bad Eye Bill
TTITLE6=The Millionaire
TTITLE7=I Don't Want To Be Alone Tonight
TTITLE8=Angela's Eyes
TTITLE9=Years From now
TTITLE10=I'll Kill You
TTITLE11=The Radio
EXTD=
EXTT0=
EXTT1=
EXTT2=
EXTT3=
EXTT4=
EXTT5=
EXTT6=
EXTT7=
EXTT8=
EXTT9=
EXTT10=
EXTT11=
PLAYORDER=
